<?xml version="1.0" encoding="utf-8"?>
<svg version="1.1" id="Layer_1" xmlns="http://www.w3.org/2000/svg" xmlns:xlink="http://www.w3.org/1999/xlink" x="0px" y="0px"
	 viewBox="0 0 300 90" style="enable-background:new 0 0 300 90;" xml:space="preserve">
<style type="text/css">
	.st0{fill-rule:evenodd;clip-rule:evenodd;fill:#2E3C7C;}
	.st1{opacity:0.961;fill-rule:evenodd;clip-rule:evenodd;enable-background:new    ;}
	.st2{opacity:0.958;fill-rule:evenodd;clip-rule:evenodd;enable-background:new    ;}
	.st3{opacity:0.959;fill-rule:evenodd;clip-rule:evenodd;enable-background:new    ;}
</style>
<g>
	<g>
		<path class="st0" d="M117.64,15c0.05,0,0.1,0,0.15,0c0.31,18.45,5.32,35.51,15.03,51.18c0.89-0.16,1.75-0.41,2.58-0.76
			c0.12,0.05,0.22,0.12,0.3,0.23c-1.39,2.69-3.32,4.92-5.77,6.68c-1.43,0.82-2.98,1.25-4.63,1.29c-7.31-0.42-14.62-0.55-21.94-0.38
			c-7.1,0.41-14.19,1-21.26,1.75c-1.21,0.11-2.19-0.3-2.96-1.21c-0.52-1.21-0.95-2.45-1.29-3.72c11.03-15.3,22.04-30.61,33.03-45.94
			c0.13-1.94,0.53-3.81,1.21-5.62c0.49-0.74,1.12-1.32,1.9-1.75C115.21,16.12,116.42,15.53,117.64,15z M111.72,30.19
			c1.84,10.29,4.9,20.21,9.19,29.76c1.16,2.39,2.45,4.69,3.87,6.91c-0.92,0.17-1.86,0.24-2.81,0.23
			c-9.29-0.25-18.58-0.17-27.87,0.23c-2.69,0.21-5.38,0.46-8.05,0.76C94.65,55.46,103.2,42.83,111.72,30.19z"/>
	</g>
	<g>
		<path class="st1" d="M177.62,28.21c1.53-0.29,2.44,0.32,2.73,1.82c-1.44,5.87-2.89,11.74-4.33,17.62
			c-0.51,3.27-0.82,6.56-0.91,9.87c-0.09,2.47-1.28,3.31-3.57,2.51c-0.18-0.14-0.31-0.31-0.38-0.53c-0.03-0.67-0.13-1.33-0.3-1.97
			c-1.97,1.43-4.12,2.52-6.45,3.26c-4.17,0.74-6.45-0.98-6.83-5.16c0.75-5.49,3.53-9.59,8.35-12.3c1.93-1.15,4-1.6,6.23-1.37
			c0.33,0.2,0.66,0.22,0.99,0.08c1.18-4.07,2.24-8.17,3.19-12.3C176.59,29.05,177.02,28.55,177.62,28.21z M171.7,45.22
			c0.44,0.03,0.7,0.26,0.76,0.68c-0.28,2.2-0.76,4.35-1.44,6.45c-0.61,1.27-1.5,2.31-2.66,3.11c-1.38,1.02-2.9,1.76-4.56,2.2
			c-1.71-0.22-2.52-1.2-2.43-2.96c0.49-2.71,1.81-4.94,3.95-6.68C167.2,46.49,169.32,45.55,171.7,45.22z"/>
	</g>
	<g>
		<path class="st2" d="M219.84,40.06c1.86-0.13,2.6,0.73,2.2,2.58c-0.13,0.87-0.44,1.68-0.91,2.43
			c-3.65,5.12-7.25,10.28-10.78,15.49c-1.06,1.39-2.25,1.54-3.57,0.46c-1.4-5.15-2.54-10.36-3.42-15.64
			c-0.42-1.49-0.26-2.9,0.46-4.25c0.82-0.72,1.7-0.8,2.66-0.23c0.23,0.33,0.46,0.66,0.68,0.99c0.48,2.82,0.88,5.66,1.21,8.5
			c0.25,1.74,0.58,3.46,0.99,5.16c1.98-2.56,3.88-5.2,5.69-7.9c1.22-2.04,2.29-4.17,3.19-6.38
			C218.7,40.73,219.23,40.33,219.84,40.06z"/>
	</g>
	<g>
		<path class="st3" d="M192.51,41.42c0.9,0.02,1.79,0.12,2.66,0.3c1.07-0.45,2.11-0.37,3.11,0.23c0.54,0.64,0.72,1.38,0.53,2.2
			c-1.51,5.31-2.77,10.68-3.8,16.1c-1.01,1.25-2.18,1.4-3.49,0.46c-0.02-1.37-0.02-2.73,0-4.1c-1.53,1.43-3.22,2.62-5.09,3.57
			c-0.96,0.3-1.92,0.3-2.89,0c-2.16-1.16-3.05-2.96-2.66-5.39c1.07-5.67,4.08-9.95,9.04-12.83
			C190.79,41.72,191.65,41.54,192.51,41.42z M192.96,44.61c0.41-0.02,0.81,0,1.21,0.08c0.23,0.25,0.33,0.55,0.3,0.91
			c-0.25,2.79-1.33,5.2-3.26,7.21c-1.15,1.25-2.39,2.39-3.72,3.42c-2.65,1.55-3.63,0.81-2.96-2.2
			C185.8,49.45,188.6,46.31,192.96,44.61z"/>
	</g>
</g>
</svg>
