<?xml version="1.0" encoding="utf-8"?>
<svg version="1.1" xmlns="http://www.w3.org/2000/svg" xmlns:xlink="http://www.w3.org/1999/xlink" x="0px" y="0px"
	 viewBox="0 0 600 180" style="enable-background:new 0 0 600 180;" xml:space="preserve">
<style type="text/css">
	.st0{fill:#333333;}
	.st1{display:none;}
	.st2{display:inline;}
	.st3{fill:#193154;}
	.st4{fill:#6876FA;}
</style>
<g id="OSL">
	<g>
		<rect x="59.99" y="55.62" width="29.38" height="9.99"/>
		<rect x="30.61" y="85" transform="matrix(-1.836970e-16 1 -1 -1.836970e-16 144.9964 35.0036)" width="48.77" height="9.99"/>
		<rect x="69.99" y="85" transform="matrix(-1.836970e-16 1 -1 -1.836970e-16 184.3702 -4.3702)" width="48.77" height="9.99"/>
		<rect x="59.99" y="114.38" width="29.38" height="9.99"/>
	</g>
	<g>
		<path class="st0" d="M142.23,106.3c-8.91,0-15.37-6.87-15.37-17.88s6.46-17.88,15.37-17.88s15.37,6.87,15.37,17.88
			S151.13,106.3,142.23,106.3z M142.23,74.48c-6.32,0-11.29,4.9-11.29,13.94s4.96,13.94,11.29,13.94s11.29-4.9,11.29-13.94
			S148.55,74.48,142.23,74.48z"/>
		<path class="st0" d="M164.13,79.72H168v4.15h0.48c0.88-1.36,2.45-4.49,7.55-4.49c6.6,0,11.15,5.24,11.15,13.46
			c0,8.29-4.56,13.53-11.08,13.53c-5.03,0-6.73-3.13-7.62-4.56h-0.34v13.8h-4.01V79.72z M175.55,102.77c5.03,0,7.62-4.42,7.62-10
			c0-5.51-2.52-9.79-7.62-9.79c-4.9,0-7.48,3.94-7.48,9.79C168.07,98.69,170.72,102.77,175.55,102.77z"/>
		<path class="st0" d="M192.08,92.97c0-8.02,4.69-13.6,11.76-13.6c5.44,0,11.22,3.33,11.22,13.05v1.7h-18.95
			c0.19,5.59,3.43,8.63,8.14,8.63c3.14,0,5.51-1.36,6.53-4.08l3.88,1.09c-1.22,3.94-5.1,6.6-10.4,6.6
			C196.7,106.37,192.08,101,192.08,92.97z M210.98,90.66c0-4.42-2.79-7.68-7.14-7.68c-4.59,0-7.46,3.62-7.73,7.68H210.98z"/>
		<path class="st0" d="M225.2,105.83h-4.01V79.72h3.88v4.08h0.34c1.22-2.65,3.67-4.42,7.62-4.42c5.29,0,8.84,3.2,8.84,9.86v16.59
			h-4.01V89.51c0-4.1-2.26-6.53-5.98-6.53c-3.84,0-6.66,2.58-6.66,7.14V105.83z"/>
		<path class="st0" d="M274.43,74.28c-4.62,0-7.68,2.45-7.68,5.78c0,3.74,4.15,5.1,6.73,5.78l3.54,0.95
			c3.6,0.95,9.79,3.06,9.79,9.59c0,5.64-4.56,10.06-12.58,10.06c-7.48,0-12.1-3.88-12.51-9.59h4.35c0.34,3.94,4.01,5.78,8.16,5.78
			c4.83,0,8.5-2.52,8.5-6.32c0-3.47-3.26-4.76-6.94-5.78l-4.28-1.22c-5.44-1.56-8.84-4.35-8.84-9.04c0-5.85,5.24-9.72,11.9-9.72
			c6.73,0,11.58,3.93,11.76,9.18h-4.08C281.84,76.28,278.65,74.28,274.43,74.28z"/>
		<path class="st0" d="M292.86,115.14l1.02-3.54c2.92,0.75,4.73,0.37,6.19-3.6l0.75-2.04l-9.66-26.25h4.35l7.21,20.81H303
			l7.21-20.81h4.35l-11.08,29.92c-1.51,4.06-4.06,5.98-7.68,5.98C294.43,115.62,293.27,115.34,292.86,115.14z"/>
		<path class="st0" d="M334.75,86.58c-0.7-1.8-2.14-3.74-5.64-3.74c-3.2,0-5.58,1.63-5.58,3.88c0,2.01,1.39,3.04,4.49,3.81
			l3.88,0.95c4.66,1.14,6.94,3.43,6.94,7.07c0,4.5-4.13,7.82-10.2,7.82c-5.34,0-8.99-2.36-9.93-6.8l3.81-0.95
			c0.71,2.8,2.77,4.22,6.05,4.22c3.74,0,6.12-1.84,6.12-4.08c0-1.8-1.24-3.06-3.88-3.67l-4.35-1.02c-4.79-1.12-6.93-3.54-6.93-7.14
			c0-4.42,4.08-7.55,9.59-7.55c5.17,0,7.99,2.48,9.25,6.19L334.75,86.58z"/>
		<path class="st0" d="M356.25,83.12h-5.58v15.23c0,3.4,1.7,3.94,3.47,3.94c0.88,0,1.43-0.14,1.77-0.2l0.82,3.6
			c-0.54,0.2-1.5,0.48-2.99,0.48c-3.4,0-7.07-2.18-7.07-6.73V83.12h-3.94v-3.4h3.94v-6.26h4.01v6.26h5.58V83.12z"/>
		<path class="st0" d="M360.8,92.97c0-8.02,4.69-13.6,11.76-13.6c5.44,0,11.22,3.33,11.22,13.05v1.7h-18.95
			c0.19,5.59,3.43,8.63,8.14,8.63c3.15,0,5.51-1.36,6.53-4.08l3.88,1.09c-1.22,3.94-5.1,6.6-10.4,6.6
			C365.43,106.37,360.8,101,360.8,92.97z M379.71,90.66c0-4.42-2.79-7.68-7.14-7.68c-4.59,0-7.46,3.62-7.73,7.68H379.71z"/>
		<path class="st0" d="M389.91,79.72h3.88v4.08h0.34c1.09-2.79,3.6-4.42,7-4.42c3.43,0,5.71,1.63,7,4.42h0.27
			c1.34-2.7,4.08-4.42,7.82-4.42c4.66,0,7.96,2.84,7.96,8.98v17.47h-4.01V88.35c0-3.86-2.45-5.37-5.3-5.37
			c-3.67,0-5.78,2.48-5.78,5.85v17h-4.08V87.94c0-2.97-2.12-4.96-5.17-4.96c-3.13,0-5.92,2.7-5.92,6.53v16.32h-4.01V79.72z"/>
		<path class="st0" d="M446.42,86.58c-0.7-1.8-2.14-3.74-5.64-3.74c-3.2,0-5.58,1.63-5.58,3.88c0,2.01,1.39,3.04,4.49,3.81
			l3.88,0.95c4.66,1.14,6.94,3.43,6.94,7.07c0,4.5-4.13,7.82-10.2,7.82c-5.34,0-8.99-2.36-9.93-6.8l3.81-0.95
			c0.71,2.8,2.77,4.22,6.05,4.22c3.74,0,6.12-1.84,6.12-4.08c0-1.8-1.24-3.06-3.88-3.67l-4.35-1.02c-4.79-1.12-6.93-3.54-6.93-7.14
			c0-4.42,4.08-7.55,9.59-7.55c5.17,0,7.99,2.48,9.25,6.19L446.42,86.58z"/>
		<path class="st0" d="M470.57,71.01h4.22v31.07h16.18v3.74h-20.4V71.01z"/>
		<path class="st0" d="M495.73,98.41c0-5.98,5.29-7.05,10.13-7.68c4.76-0.61,6.73-0.44,6.73-2.38v-0.14c0-3.35-1.82-5.3-5.51-5.3
			c-3.83,0-5.92,2.04-6.8,3.94l-3.81-1.36c2.04-4.76,6.53-6.12,10.47-6.12c3.33,0,9.65,0.95,9.65,9.25v17.2h-4.01v-3.54h-0.2
			c-0.82,1.7-3.2,4.15-7.75,4.15C499.67,106.44,495.73,103.51,495.73,98.41z M512.59,96.37V92.7c-0.68,0.82-5.24,1.29-6.93,1.5
			c-3.13,0.41-5.92,1.36-5.92,4.42c0,2.79,2.31,4.22,5.51,4.22C510.01,102.83,512.59,99.64,512.59,96.37z"/>
		<path class="st0" d="M524.5,71.01h4.01v12.85h0.34c0.88-1.36,2.45-4.49,7.55-4.49c6.6,0,11.15,5.24,11.15,13.46
			c0,8.29-4.56,13.53-11.08,13.53c-5.03,0-6.73-3.13-7.62-4.56h-0.48v4.01h-3.88V71.01z M535.92,102.77c5.03,0,7.62-4.42,7.62-10
			c0-5.51-2.52-9.79-7.62-9.79c-4.9,0-7.48,3.94-7.48,9.79C528.44,98.69,531.09,102.77,535.92,102.77z"/>
	</g>
</g>
<g id="Taslonic" class="st1">
	<g class="st2">
		<path class="st3" d="M347.82,79.23c-10.59,0-19.12,8.53-19.12,19.12s8.53,19.12,19.12,19.12c10.59,0,19.12-8.53,19.12-19.12
			S358.41,79.23,347.82,79.23z M347.82,107.01c-4.13,0-7.56-3.85-7.56-8.66s3.44-8.66,7.56-8.66s7.56,3.85,7.56,8.66
			C355.39,103.16,352.09,107.01,347.82,107.01z M417.55,66.17c-3.3,0-6.05,2.48-6.05,5.64s2.75,5.64,6.05,5.64s6.05-2.48,6.05-5.64
			C423.6,68.78,420.85,66.17,417.55,66.17z M411.64,116.92h11.69V79.78h-11.69V116.92z M388.12,79.23c-2.48,0-4.81,0.41-7.01,1.38
			v-0.69H369v10.04l0,0v8.39l0,0l0,0v18.57h12.1V96.7c0-3.85,3.16-7.01,7.01-7.01s7.01,3.16,7.01,7.01v20.22h12.1V98.35
			C407.24,87.76,398.57,79.23,388.12,79.23z M446.43,107.01c-4.13,0-7.56-3.85-7.56-8.66s3.44-8.66,7.56-8.66
			c2.75,0,5.09,1.65,6.46,4.13H465c-2.06-8.39-9.63-14.58-18.57-14.58c-10.59,0-19.12,8.53-19.12,19.12s8.53,19.12,19.12,19.12
			c8.39,0,15.4-5.36,18.02-12.79h-12.79C450.28,106.19,448.5,107.01,446.43,107.01z M254.58,80.61c-2.2-0.83-4.54-1.38-7.01-1.38
			c-10.59,0-19.12,8.53-19.12,19.12s8.53,19.12,19.12,19.12c2.48,0,4.81-0.41,7.01-1.38v0.69h12.1v-37h-12.1V80.61z M247.56,107.01
			c-4.13,0-7.56-3.85-7.56-8.66s3.44-8.66,7.56-8.66c4.13,0,7.56,3.85,7.56,8.66S251.69,107.01,247.56,107.01z M293.91,94.5
			l-7.7-1.38c-2.89-0.55-3.71-1.51-3.71-2.61c0-1.51,1.93-2.48,4.26-2.48c2.75,0,4.95,1.38,5.09,3.71h12.52
			c-0.41-7.84-7.01-12.52-18.02-12.52c-10.86,0-17.6,4.4-17.47,12.1c0,5.78,3.85,9.63,11.55,10.87l6.74,1.1
			c3.03,0.55,4.26,1.24,4.4,2.75c0,1.51-1.93,2.48-4.4,2.48c-3.03,0-5.23-1.24-5.64-3.71h-13.62c0.69,7.56,7.43,12.65,19.12,12.65
			c10.45,0,18.29-4.95,18.29-12.93C305.46,99.04,301.61,95.87,293.91,94.5z M225.83,103.44c-2.34,2.48-6.19,2.61-8.8,0.28
			c-1.38-1.24-1.93-2.89-1.93-4.54V81.85h13.34V71.81h-13.48v-9.35h-12.1v9.35h-5.91l5.91,10.04v17.33c0,5.09,2.2,10.04,5.91,13.48
			c6.46,6.05,16.37,6.46,23.24,1.38L225.83,103.44L225.83,103.44z M324.99,105.36c-3.44,0-6.19-2.75-6.19-6.19V62.45h-12.1v9.35l0,0
			v27.37l0,0c0,10.04,8.25,18.29,18.29,18.29c3.03,0,5.91-0.83,8.53-2.06l-6.19-10.45C326.64,105.23,325.82,105.36,324.99,105.36z"
			/>
		<path class="st4" d="M178.8,93.54c-0.69-1.1-1.65-1.79-2.89-2.2c-1.24-0.28-2.48-0.14-3.44,0.55l-26.27,15.54
			c-0.69,0.41-1.51,0.14-1.79-0.41c-0.28-0.41-0.14-0.83-0.14-0.96c0-0.28,0.28-0.55,0.55-0.83l38.92-22.97
			c2.48-1.38,4.13-3.71,4.81-6.46c0.69-2.75,0.28-5.64-1.1-7.98c-2.89-5.09-9.35-6.74-14.44-3.85l-22.14,13.34l-3.3-5.5h7.01
			l15.68-9.21H139.6l0,0c-0.83,0-1.65,0.14-2.34,0.55c-2.2,1.24-2.89,4.13-1.65,6.33l9.76,16.64c0.55,1.1,1.51,1.79,2.75,2.06
			c1.24,0.28,2.48,0.14,3.58-0.55l26.13-15.82c0.69-0.41,1.51-0.14,1.79,0.41c0.28,0.41,0.14,0.83,0.14,0.96
			c0,0.28-0.28,0.55-0.55,0.83l-39.06,23.11c-2.48,1.38-4.13,3.71-4.81,6.46c-0.69,2.75-0.28,5.64,1.1,7.98
			c2.89,4.95,9.49,6.74,14.44,3.71l22.28-13.07l3.16,5.36h-7.01l-15.68,9.21h30.81l0,0c0.83,0,1.65-0.14,2.34-0.69
			c2.2-1.24,2.89-4.13,1.65-6.33L178.8,93.54z"/>
	</g>
</g>
</svg>
