<?xml version="1.0" encoding="utf-8"?>
<!-- Generator: Adobe Illustrator 24.1.0, SVG Export Plug-In . SVG Version: 6.00 Build 0)  -->
<svg version="1.1" id="Layer_1" xmlns="http://www.w3.org/2000/svg" xmlns:xlink="http://www.w3.org/1999/xlink" x="0px" y="0px"
	 viewBox="0 0 80 46" style="enable-background:new 0 0 80 46;" xml:space="preserve">
<style type="text/css">
	.st0{fill:#6699FF;}
</style>
<path class="st0" d="M0,46h2V0H0V46z M7.8,46h2V0h-2V46z M15.6,46h2V0h-2V46z M23.4,46h2V0h-2V46z M31.2,46h2V0h-2V46z M39,46h2V0
	h-2V46z M46.8,46h2V0h-2V46z M54.6,46h2V0h-2V46z M62.4,46h2V0h-2V46z M70.2,46h2V0h-2V46z M78,0v46h2V0H78z"/>
</svg>
