<?xml version="1.0" encoding="utf-8"?>
<!-- Generator: Adobe Illustrator 24.0.3, SVG Export Plug-In . SVG Version: 6.00 Build 0)  -->
<svg version="1.1" id="Layer_1" xmlns="http://www.w3.org/2000/svg" xmlns:xlink="http://www.w3.org/1999/xlink" x="0px" y="0px"
	 viewBox="0 0 24 24" style="enable-background:new 0 0 24 24;" xml:space="preserve">
<style type="text/css">
	.st0{display:none;}
</style>
<path id="lightning" class="st0" d="M8.6,23.5c-0.1,0-0.2,0-0.2-0.1c-0.2-0.1-0.3-0.3-0.2-0.5l1.7-9.8H1.8c-0.2,0-0.4-0.1-0.5-0.3
	s0-0.4,0.1-0.6L15.1,0.6c0.2-0.1,0.4-0.2,0.6-0.1c0.2,0.1,0.3,0.3,0.2,0.5l-1.7,9.8h8.1c0.2,0,0.4,0.1,0.5,0.3
	c0.1,0.2,0,0.4-0.1,0.6L8.9,23.4C8.8,23.5,8.7,23.5,8.6,23.5z M3.1,12.1h7.3c0.1,0,0.3,0.1,0.4,0.2c0.1,0.1,0.1,0.3,0.1,0.4
	l-1.6,9.1l11.5-9.8h-7.3c-0.1,0-0.3-0.1-0.4-0.2s-0.1-0.3-0.1-0.4l1.6-9.1L3.1,12.1z"/>
<path id="cog" class="st0" d="M11.5,23.5C11.5,23.5,11.4,23.5,11.5,23.5c-0.5,0-0.8-0.2-1.1-0.5c-0.3-0.3-0.4-0.7-0.4-1.1l0.1-1.7
	c0.1-0.4-0.1-0.7-0.5-0.9c-0.4-0.1-0.7,0.1-0.9,0.4l-0.9,1.4c-0.2,0.3-0.6,0.6-0.9,0.7c-0.4,0.1-0.8,0-1.1-0.2
	c-0.7-0.5-0.9-1.4-0.4-2.1l0.9-1.4c0.3-0.3,0.3-0.7,0-1c-0.2-0.3-0.7-0.3-1-0.1l-1.5,0.8C3.4,18.1,3,18.1,2.6,18
	c-0.4-0.1-0.7-0.4-0.9-0.7c-0.4-0.7-0.1-1.6,0.7-2l1.5-0.8c0.4-0.1,0.6-0.5,0.5-0.8C4.3,13.3,4,13,3.6,13.1L1.9,13
	c-0.4,0-0.8-0.2-1-0.5c-0.3-0.3-0.4-0.7-0.4-1.1c0-0.4,0.2-0.8,0.5-1C1.3,10.1,1.7,10,2.1,10l1.7,0.1c0.4,0.1,0.7-0.1,0.9-0.5
	c0.1-0.4-0.1-0.7-0.4-0.9L2.8,7.8C2.1,7.4,1.9,6.4,2.3,5.7c0.2-0.3,0.6-0.6,0.9-0.7c0.4-0.1,0.8,0,1.1,0.2l1.4,0.9
	c0.3,0.3,0.7,0.3,1,0c0.3-0.2,0.3-0.7,0.1-1L6.1,3.8C5.7,3,6,2.1,6.8,1.7c0.7-0.4,1.6-0.1,2,0.7l0.8,1.5c0.1,0.4,0.5,0.6,0.8,0.5
	C10.7,4.3,11,4,10.9,3.6L11,1.9c0-0.8,0.7-1.5,1.6-1.4c0.8,0,1.5,0.8,1.4,1.6l-0.1,1.7c-0.1,0.4,0.1,0.7,0.5,0.9
	c0.4,0.1,0.7-0.1,0.9-0.4l0.9-1.4c0.2-0.3,0.6-0.6,0.9-0.7c0.4-0.1,0.8,0,1.1,0.2c0.7,0.5,0.9,1.4,0.4,2.1l-0.9,1.4
	c-0.3,0.3-0.3,0.7,0,1c0.2,0.3,0.7,0.3,1,0.1l1.5-0.8C20.6,5.9,21,5.9,21.4,6c0.4,0.1,0.7,0.4,0.9,0.7c0.2,0.4,0.2,0.8,0.1,1.1
	c-0.1,0.4-0.4,0.7-0.7,0.9l-1.5,0.8c-0.4,0.1-0.6,0.5-0.5,0.8c0.1,0.4,0.4,0.6,0.8,0.6l1.7,0.1c0.4,0,0.8,0.2,1,0.5
	c0.3,0.3,0.4,0.7,0.4,1.1c0,0.8-0.8,1.5-1.6,1.4l-1.7-0.1c-0.4-0.1-0.7,0.1-0.9,0.5c-0.1,0.4,0.1,0.7,0.4,0.9l1.4,0.9
	c0.3,0.2,0.6,0.6,0.7,0.9s0,0.8-0.2,1.1c-0.4,0.7-1.4,0.9-2.1,0.4l-1.4-0.9c-0.3-0.3-0.7-0.3-1,0c-0.3,0.3-0.3,0.7-0.1,1l0.8,1.5
	c0.4,0.7,0.1,1.6-0.7,2c-0.7,0.4-1.6,0.1-2-0.7l-0.8-1.5c-0.1-0.4-0.5-0.6-0.8-0.5c-0.4,0.1-0.6,0.4-0.6,0.8L13,22.1
	C12.9,22.9,12.3,23.5,11.5,23.5z M11.1,20.4L11,22c0,0.1,0,0.3,0.1,0.4c0.1,0.1,0.2,0.2,0.3,0.2c0.3,0,0.5-0.2,0.5-0.5l0.1-1.6
	c0-0.1,0-0.3,0-0.4l0,0c0.1-0.7,0.6-1.2,1.3-1.3c0.7-0.1,1.4,0.2,1.8,0.7l0.9,1.8c0.1,0.2,0.4,0.3,0.7,0.2c0.2-0.1,0.3-0.4,0.2-0.7
	l-0.7-1.4c-0.5-0.7-0.4-1.7,0.3-2.2c0.6-0.6,1.6-0.6,2.3,0l0,0l1.3,0.9c0.2,0.1,0.5,0.1,0.7-0.1c0.2-0.2,0.1-0.5-0.1-0.7l-1.3-0.9
	c-0.1-0.1-0.5-0.3-0.5-0.3c-0.4-0.4-0.6-1.1-0.4-1.7c0.3-0.8,1.1-1.3,1.9-1.2L22,13c0.3,0,0.5-0.2,0.5-0.5c0-0.1,0-0.3-0.1-0.4
	C22.3,12.1,22.2,12,22,12l-1.6-0.1c-0.9,0.1-1.6-0.5-1.8-1.4c-0.1-0.7,0.1-1.4,0.7-1.7l1.8-0.9c0.1-0.1,0.2-0.2,0.2-0.3
	c0-0.1,0-0.3,0-0.4C21.3,7.1,21.2,7,21.1,7c-0.1,0-0.3,0-0.4,0l-1.4,0.7c-0.1,0.1-0.4,0.2-0.4,0.2c-0.6,0.2-1.3,0-1.8-0.5
	c-0.4-0.5-0.5-1.2-0.3-1.8l0.1-0.1c0.1-0.1,0.1-0.2,0.2-0.3l0.9-1.3C18,3.6,18,3.3,17.7,3.2c-0.1-0.1-0.2-0.1-0.4-0.1
	c-0.1,0-0.2,0.1-0.3,0.2l-0.9,1.3c-0.4,0.8-1.3,1.1-2.1,0.9c-0.8-0.3-1.3-1.1-1.2-1.9L13,2c0-0.3-0.2-0.5-0.5-0.5
	C12.3,1.5,12,1.7,12,2l-0.1,1.6c0,0.1,0,0.3,0,0.4l0,0c-0.1,0.7-0.6,1.2-1.3,1.3c-0.8,0.2-1.7-0.3-2-1.1L7.9,2.9
	C7.8,2.6,7.5,2.5,7.2,2.6C7,2.8,6.9,3.1,7,3.3l0.7,1.4C7.8,4.8,7.9,5,7.9,5.1l0,0.1c0.2,0.6,0,1.3-0.5,1.7C6.8,7.5,5.8,7.5,5.2,7
	L3.9,6.1C3.8,6.1,3.6,6,3.5,6.1c-0.1,0-0.2,0.1-0.3,0.2C3,6.5,3.1,6.8,3.3,7l1.3,0.9C4.8,7.9,4.9,8,5,8.1l0,0l0,0
	c0.5,0.4,0.7,1.2,0.5,1.8c-0.3,0.8-1.1,1.3-1.9,1.2l0,0L2,11c-0.1,0-0.3,0-0.4,0.1c-0.1,0.1-0.2,0.2-0.2,0.3c0,0.1,0,0.3,0.1,0.4
	S1.8,12,2,12l1.6,0.1c0.1,0,0.3,0,0.4,0l0.1,0l0,0c0.6,0.2,1.1,0.6,1.3,1.3c0.2,0.8-0.3,1.7-1.1,2l0,0l-1.4,0.7
	c-0.2,0.1-0.3,0.4-0.2,0.7C2.7,16.9,2.8,17,2.9,17c0.1,0,0.3,0,0.4,0l1.4-0.7c0.1-0.1,0.2-0.1,0.4-0.2l0.1,0l0,0
	c0.6-0.2,1.3,0,1.8,0.5c0.4,0.5,0.5,1.1,0.3,1.7c0,0-0.2,0.4-0.3,0.5l-0.9,1.3C6,20.4,6,20.7,6.3,20.8c0.1,0.1,0.2,0.1,0.4,0.1
	c0.1,0,0.2-0.1,0.3-0.2l0.9-1.3c0.4-0.8,1.3-1.2,2.1-0.9c0.6,0.2,1.1,0.8,1.2,1.4h0l0,0.1C11.1,20.1,11.1,20.3,11.1,20.4z M12,16.9
	c-0.1,0-0.1,0-0.2,0c-1.3,0-2.5-0.6-3.4-1.6s-1.4-2.2-1.3-3.5C7.2,9.1,9.5,7,12.2,7.1l0,0c2.7,0.1,4.8,2.4,4.7,5.1
	c0,1.3-0.6,2.5-1.6,3.4C14.4,16.4,13.2,16.9,12,16.9z M12,8.1c-2.1,0-3.8,1.6-3.9,3.7c0,1,0.3,2,1,2.8c0.7,0.8,1.7,1.2,2.7,1.2
	c1,0,2-0.3,2.8-1c0.8-0.7,1.2-1.7,1.2-2.7c0.1-2.1-1.6-3.9-3.7-4C12.1,8.1,12,8.1,12,8.1z"/>
<path class="st0" d="M22.8,8.1c-1-2.9-3.2-5.2-5.9-6.5c0,0,0,0,0,0C14.1,0.3,11,0.1,8.1,1.2C5.2,2.2,2.9,4.4,1.6,7.1
	C0.3,9.9,0.1,13,1.2,15.9s3.2,5.2,5.9,6.5c1.5,0.7,3.2,1.1,4.9,1.1c1.3,0,2.7-0.2,3.9-0.7c2.9-1,5.2-3.2,6.5-5.9
	C23.7,14.1,23.9,11,22.8,8.1z M8.3,10.3C10,6.6,13,3.8,16.4,2.7c1.3,3.3,1,7.4-0.7,11.1c-1.7,3.6-4.7,6.5-8.1,7.6
	C6.4,18,6.6,13.9,8.3,10.3z M2.1,15.6c-1-2.6-0.8-5.5,0.4-8C3.7,5,5.8,3.1,8.4,2.1c1.2-0.4,2.4-0.6,3.6-0.6c1.1,0,2.2,0.2,3.2,0.5
	c-3.3,1.4-6.2,4.2-7.8,7.8c-1.7,3.6-2,7.6-1,11C4.5,19.7,2.9,17.8,2.1,15.6z M21.5,16.4c-1.2,2.5-3.3,4.5-5.9,5.4
	c-2.2,0.8-4.6,0.8-6.8,0.1c3.3-1.4,6.2-4.2,7.8-7.8c1.7-3.6,2-7.6,1-11c2,1.2,3.5,3.1,4.3,5.3C22.8,11,22.7,13.9,21.5,16.4z"/>
<path class="st0" d="M15.2,7c-1.3,0-2.3,1-2.3,2.3v13.6c0,0.3,0.2,0.5,0.5,0.5H17c0.3,0,0.5-0.2,0.5-0.5V9.3C17.5,8,16.5,7,15.2,7z
	 M16.5,22.3h-2.6V9.3c0-0.7,0.6-1.3,1.3-1.3s1.3,0.6,1.3,1.3V22.3z M8.8,9.7c-1.3,0-2.3,1-2.3,2.3v10.8c0,0.3,0.2,0.5,0.5,0.5h3.6
	c0.3,0,0.5-0.2,0.5-0.5V12C11.1,10.7,10.1,9.7,8.8,9.7z M10.1,22.3H7.5V12c0-0.7,0.6-1.3,1.3-1.3s1.3,0.6,1.3,1.3V22.3z M21.2,0.7
	c-1.3,0-2.3,1-2.3,2.3v19.9c0,0.3,0.2,0.5,0.5,0.5c2.3,0,4.1-1.8,4.1-4.1V3C23.5,1.7,22.5,0.7,21.2,0.7z M22.5,19.2
	c0,1.5-1.1,2.8-2.6,3.1V3c0-0.7,0.6-1.3,1.3-1.3s1.3,0.6,1.3,1.3V19.2z M2.8,15.1c-1.3,0-2.3,1-2.3,2.3v1.8c0,2.3,1.8,4.1,4.1,4.1
	c0.3,0,0.5-0.2,0.5-0.5v-5.4C5.1,16.2,4.1,15.1,2.8,15.1z M4.1,22.3c-1.5-0.2-2.6-1.5-2.6-3.1v-1.8c0-0.7,0.6-1.3,1.3-1.3
	s1.3,0.6,1.3,1.3V22.3z"/>
<path class="st0" d="M8.9,1.7C8.6,1.2,8,1,7.4,1C6.2,1,5.1,1.9,4.9,3.1L2.1,18.9c0,0,0,0,0,0c0,0,0,0,0,0.1c0,0.1,0,0.1,0,0.2
	c0,0,0,0,0,0l1.1,3.5C3.3,22.8,3.5,23,3.7,23c0,0,0,0,0.1,0c0.2,0,0.3-0.1,0.4-0.2l2.4-3.5c0,0,0,0,0,0c0-0.1,0.1-0.1,0.1-0.2
	L9.4,3.3C9.5,2.7,9.3,2.1,8.9,1.7z M3.9,21.4l-0.6-1.9h1.9L3.9,21.4z M5.7,18.5H3.2L5.8,3.3C6,2.6,6.7,2,7.4,2C7.8,2,8,2.1,8.2,2.3
	c0.2,0.2,0.3,0.5,0.2,0.9L5.7,18.5z M15.8,1.2C15.7,1.1,15.6,1,15.5,1H12c-0.2,0-0.4,0.2-0.5,0.4l-3.7,21c0,0.1,0,0.3,0.1,0.4
	C8,22.9,8.1,23,8.3,23h3.5c0.2,0,0.4-0.2,0.5-0.4l3.7-21C16,1.4,15.9,1.3,15.8,1.2z M11.4,22H8.8l0.3-1.7h0.5c0.3,0,0.5-0.2,0.5-0.5
	s-0.2-0.5-0.5-0.5H9.3l0.3-1.7h1.4c0.3,0,0.5-0.2,0.5-0.5s-0.2-0.5-0.5-0.5H9.7l0.3-1.7h0.5c0.3,0,0.5-0.2,0.5-0.5
	c0-0.3-0.2-0.5-0.5-0.5h-0.3l0.3-1.7h1.4c0.3,0,0.5-0.2,0.5-0.5s-0.2-0.5-0.5-0.5h-1.2L11,9.8h0.5c0.3,0,0.5-0.2,0.5-0.5
	c0-0.3-0.2-0.5-0.5-0.5h-0.3l0.3-1.7h1.4c0.3,0,0.5-0.2,0.5-0.5s-0.2-0.5-0.5-0.5h-1.2l0.3-1.7h0.5c0.3,0,0.5-0.2,0.5-0.5
	s-0.2-0.5-0.5-0.5h-0.3L12.4,2h2.5L11.4,22z M21.4,2c-0.4-0.4-0.9-0.7-1.5-0.7c-1.2,0-2.3,0.9-2.5,2.2l-1.9,15.7
	c-0.5,0.2-1,0.7-1.1,1.4c-0.1,0.7,0.1,1.2,0.3,1.4c0.5,0.6,1.4,0.7,1.6,0.7h3.2c0.2,0,0.4-0.2,0.5-0.4c0-0.1,0.1-0.7-0.4-1.2
	c-0.2-0.2-0.4-0.4-0.7-0.5c0,0,0,0,0,0c0.2-0.6-0.3-1.1-0.7-1.4l3.6-15.5C22,3,21.8,2.4,21.4,2z M18.9,21.7
	C18.9,21.7,19,21.7,18.9,21.7l-2.6,0c-0.3,0-0.7-0.1-0.9-0.3c-0.1-0.1-0.2-0.4-0.1-0.6c0.2-0.9,1.4-1,1.5-1h0.7
	c0.2,0.1,0.4,0.3,0.4,0.4c-0.1,0-0.3,0.1-0.7,0.1c-0.3,0-0.5,0.2-0.5,0.5s0.2,0.5,0.5,0.5C18.1,21.2,18.7,21.4,18.9,21.7z
	 M17.3,18.8h-0.8l1.8-15.2c0.1-0.7,0.9-1.4,1.6-1.4c0.3,0,0.6,0.1,0.8,0.3c0.2,0.2,0.3,0.5,0.2,0.8L17.3,18.8z"/>
<path d="M12,23.3l-0.4-0.6c-1.6-2.2-3.4-4-5.2-5.6c-3.2-3-5.9-5.6-5.9-9.7c0-2.8,1.3-5,3.5-5.9c2.5-1,5.5-0.2,8,2.2
	c2.5-2.3,5.6-3.2,8-2.2c2.2,0.9,3.5,3.1,3.5,5.9c0,4.1-2.7,6.7-5.9,9.7c-1.8,1.7-3.6,3.4-5.2,5.6L12,23.3z M6.2,2
	C5.5,2,4.9,2.1,4.4,2.4C2.5,3.1,1.5,5,1.5,7.4c0,3.7,2.6,6.2,5.6,9c1.6,1.5,3.3,3.2,4.9,5.2c1.6-2,3.3-3.7,4.9-5.2
	c3-2.9,5.6-5.3,5.6-9c0-2.4-1-4.3-2.9-5c-2.2-0.9-5,0-7.3,2.3L12,5l-0.4-0.4C9.9,2.9,8,2,6.2,2z"/>
</svg>
