<?xml version="1.0" encoding="utf-8"?>
<!-- Generator: Adobe Illustrator 24.0.3, SVG Export Plug-In . SVG Version: 6.00 Build 0)  -->
<svg version="1.1" id="Layer_1" xmlns="http://www.w3.org/2000/svg" xmlns:xlink="http://www.w3.org/1999/xlink" x="0px" y="0px"
	 viewBox="0 0 24 24" style="enable-background:new 0 0 24 24;" xml:space="preserve">
<path id="lightning" d="M8.6,23.5c-0.1,0-0.2,0-0.2-0.1c-0.2-0.1-0.3-0.3-0.2-0.5l1.7-9.8H1.8c-0.2,0-0.4-0.1-0.5-0.3s0-0.4,0.1-0.6
	L15.1,0.6c0.2-0.1,0.4-0.2,0.6-0.1c0.2,0.1,0.3,0.3,0.2,0.5l-1.7,9.8h8.1c0.2,0,0.4,0.1,0.5,0.3c0.1,0.2,0,0.4-0.1,0.6L8.9,23.4
	C8.8,23.5,8.7,23.5,8.6,23.5z M3.1,12.1h7.3c0.1,0,0.3,0.1,0.4,0.2c0.1,0.1,0.1,0.3,0.1,0.4l-1.6,9.1l11.5-9.8h-7.3
	c-0.1,0-0.3-0.1-0.4-0.2s-0.1-0.3-0.1-0.4l1.6-9.1L3.1,12.1z"/>
</svg>
