<?xml version="1.0" encoding="utf-8"?>
<!-- Generator: Adobe Illustrator 24.0.3, SVG Export Plug-In . SVG Version: 6.00 Build 0)  -->
<svg version="1.1" id="Layer_1" xmlns="http://www.w3.org/2000/svg" xmlns:xlink="http://www.w3.org/1999/xlink" x="0px" y="0px"
	 viewBox="0 0 130 40" style="enable-background:new 0 0 130 40;" xml:space="preserve">
<style type="text/css">
	.st0{fill:#FFFFFF;}
	.st1{fill:#6699FF;}
	.st2{fill:#99BBFF;}
	.st3{fill:#3377FF;}
</style>
<g>
	<g>
		<g>
			<path class="st0" d="M39.3,8.8h9.5c5.5,0,8.6,3.4,8.6,8.2c0,4.8-3.2,8.1-8.8,8.1h-4.3V33h-5.1V8.8z M47.8,21c2.9,0,4.3-1.6,4.3-4
				c0-2.4-1.4-4-4.4-4h-3.4v8H47.8z"/>
			<path class="st0" d="M58.5,10c0-1.4,1.2-2.5,2.7-2.5c1.5,0,2.7,1.1,2.7,2.5c0,1.4-1.2,2.5-2.7,2.5C59.8,12.5,58.5,11.4,58.5,10z
				 M58.7,14.9h5V33h-5V14.9z"/>
			<path class="st0" d="M76,18.6h-3.4v8.8c0,1.4,0.7,1.8,1.7,1.8c0.5,0,1-0.1,1.2-0.2l0.8,3.7c-0.5,0.2-1.4,0.4-2.7,0.5
				c-3.6,0.2-6.1-1.6-6-5.1v-9.4h-2.5v-3.8h2.5v-4.3h5v4.3H76V18.6z"/>
			<path class="st0" d="M88.1,20.3c-0.2-1.2-1.3-2.1-3-2.1c-1.6,0-2.8,0.7-2.8,1.8c0,0.9,0.6,1.4,2.3,1.8l3.3,0.7
				c3.5,0.7,5.2,2.3,5.2,4.9c0,3.6-3.4,6-8.1,6c-4.8,0-7.7-2.1-8.2-5.6l4.9-0.3c0.3,1.5,1.5,2.2,3.3,2.2c1.8,0,2.9-0.8,2.9-1.8
				c0-0.9-0.7-1.5-2.3-1.8l-3.1-0.6c-3.5-0.7-5.2-2.5-5.2-5.2c0-3.5,3-5.6,7.7-5.6c4.6,0,7.3,2.1,7.7,5.4L88.1,20.3z"/>
			<path class="st0" d="M94.4,8.8h5v9.1h0.2c0.7-1.5,2.1-3.3,5.1-3.3c4,0,7.3,3.1,7.3,9.3c0,6.1-3.2,9.3-7.3,9.3
				c-2.9,0-4.4-1.7-5.1-3.2h-0.2V33h-4.9V8.8z M103.1,29.3c2.5,0,3.8-2.2,3.8-5.3c0-3.1-1.3-5.3-3.8-5.3c-2.4,0-3.8,2.1-3.8,5.3
				S100.7,29.3,103.1,29.3z"/>
			<path class="st0" d="M113,39.4l1.1-3.9c1.8,0.5,3,0.4,3.7-1.2l0.3-0.9l-6.5-18.6h5.3l3.7,13.3h0.2l3.8-13.3h5.3L122.9,35
				c-1,2.9-3.2,5-6.9,5C114.6,40,113.6,39.7,113,39.4z"/>
		</g>
	</g>
	<path class="st1" d="M0,15.8v7.4l8.3-8.3L1.7,8.3C0.5,10.5-0.1,13.1,0,15.8z"/>
	<path class="st2" d="M1.7,8.3l6.6,6.6l8.3-8.3L11,0.9C7,2,3.6,4.7,1.7,8.3z"/>
	<path class="st3" d="M14.3,0.4c-1.1,0-2.3,0.2-3.3,0.5l5.7,5.7l4.7-4.7C19.2,0.9,16.8,0.4,14.3,0.4z"/>
	<path class="st3" d="M1.9,21.3v8.2c0,0.2,0,0.4,0,0.6c0.1,2.1,1,4.1,2.4,5.5l6-6L1.9,21.3z"/>
	<polygon class="st3" points="1.9,21.3 1.9,21.3 10.2,29.6 18.6,21.3 10.2,13 	"/>
	<rect x="12.7" y="7.1" transform="matrix(0.707 -0.7072 0.7072 0.707 -3.7455 16.9343)" class="st1" width="11.8" height="11.8"/>
	<path class="st2" d="M23.2,0l-4.7,4.7l8.3,8.3l4-4C29.7,5,26.9,1.8,23.2,0z"/>
	<path class="st2" d="M8.3,31.5l-6,6c1.6,1.6,3.8,2.6,6.3,2.5c2.2-0.1,4.2-1,5.7-2.5L8.3,31.5z"/>
	<path class="st1" d="M21.8,28.4l-5.1-5.1l-8.3,8.3l6,6c1.5-1.6,2.4-3.7,2.4-6.1V30C18.5,29.7,20.2,29.2,21.8,28.4z"/>
	<path class="st3" d="M29.2,19.1L25,14.9l-8.3,8.3l5.1,5.1C25.4,26.4,28.1,23.1,29.2,19.1z"/>
	<path class="st2" d="M29.2,19.1c0.4-1.4,0.6-2.9,0.5-4.4c0-1.3-0.3-2.6-0.7-3.8l-4,4L29.2,19.1z"/>
</g>
</svg>
