<?xml version="1.0" encoding="utf-8"?>
<!-- Generator: Adobe Illustrator 24.1.0, SVG Export Plug-In . SVG Version: 6.00 Build 0)  -->
<svg version="1.1" id="Layer_1" xmlns="http://www.w3.org/2000/svg" xmlns:xlink="http://www.w3.org/1999/xlink" x="0px" y="0px"
	 viewBox="0 0 130 40" style="enable-background:new 0 0 130 40;" xml:space="preserve">
<style type="text/css">
	.st0{fill:#FFFFFF;}
	.st1{fill:#6699FF;}
	.st2{fill:#99BBFF;}
	.st3{fill:#3377FF;}
</style>
<g>
	<path class="st0" d="M48.8,6.1h-9.5v24.1h5.1v-7.8h4.3c5.5,0,8.8-3.3,8.8-8.1C57.4,9.5,54.3,6.1,48.8,6.1z M47.8,18.4h-3.5v-8h3.4
		c2.9,0,4.4,1.6,4.4,4C52.2,16.7,50.7,18.4,47.8,18.4z M61.2,4.8c-1.5,0-2.7,1.1-2.7,2.5c0,1.4,1.2,2.5,2.7,2.5
		c1.5,0,2.7-1.1,2.7-2.5C64,5.9,62.7,4.8,61.2,4.8z M58.7,30.3h5V12.2h-5V30.3z M74.3,26.5c-1,0-1.7-0.4-1.7-1.8V16H76v-3.8h-3.4
		V7.8h-5v4.3h-2.5V16h2.5v9.4c0,3.5,2.4,5.3,6,5.1c1.3,0,2.2-0.3,2.7-0.5l-0.8-3.7C75.3,26.4,74.7,26.5,74.3,26.5z M87.8,19.8
		l-3.3-0.7c-1.7-0.4-2.3-0.9-2.3-1.8c0-1.1,1.2-1.8,2.8-1.8c1.7,0,2.8,1,3,2.1l4.6-0.3c-0.4-3.3-3.1-5.4-7.7-5.4
		c-4.6,0-7.7,2.1-7.7,5.6c0,2.7,1.7,4.5,5.2,5.2l3.1,0.6c1.6,0.3,2.3,0.9,2.3,1.8c0,1.1-1.2,1.8-2.9,1.8c-1.8,0-3-0.8-3.3-2.2
		L76.8,25c0.5,3.5,3.4,5.6,8.2,5.6c4.7,0,8-2.4,8.1-6C93.1,22.1,91.4,20.5,87.8,19.8z M104.7,11.9c-3,0-4.5,1.8-5.1,3.3h-0.2V6.1h-5
		v24.1h4.9v-2.9h0.2c0.7,1.5,2.2,3.2,5.1,3.2c4.1,0,7.3-3.3,7.3-9.3C112.1,15,108.7,11.9,104.7,11.9z M103.1,26.6
		c-2.4,0-3.8-2.1-3.8-5.3c0-3.2,1.4-5.3,3.8-5.3c2.5,0,3.8,2.2,3.8,5.3C106.9,24.4,105.6,26.6,103.1,26.6z M124.7,12.2l-3.8,13.3
		h-0.2L117,12.2h-5.3l6.5,18.6l-0.3,0.9c-0.7,1.6-1.9,1.8-3.7,1.2l-1.1,3.9c0.6,0.2,1.6,0.6,3,0.6c3.7,0,5.9-2.1,6.9-5l7.1-20.2
		H124.7z"/>
	<path class="st1" d="M0,15.8v7.4l8.3-8.3L1.7,8.3C0.5,10.5-0.1,13.1,0,15.8z"/>
	<path class="st2" d="M1.7,8.3l6.6,6.6l8.3-8.3L11,0.9C7,2,3.6,4.7,1.7,8.3z"/>
	<path class="st3" d="M14.3,0.4c-1.1,0-2.3,0.2-3.3,0.5l5.7,5.7l4.7-4.7C19.2,0.9,16.8,0.4,14.3,0.4z"/>
	<rect x="12.7" y="7.1" transform="matrix(0.707 -0.7072 0.7072 0.707 -3.7454 16.9344)" class="st1" width="11.8" height="11.8"/>
	<path class="st2" d="M8.3,31.5l-6,6c1.6,1.6,3.8,2.6,6.3,2.5c2.2-0.1,4.2-1,5.7-2.5L8.3,31.5z"/>
	<path class="st1" d="M21.8,28.4l-5.1-5.1l-8.3,8.3l6,6c1.5-1.6,2.4-3.7,2.4-6.1V30C18.5,29.7,20.2,29.2,21.8,28.4z"/>
	<path class="st3" d="M29.1,19.1l-4.2-4.2l-6.4,6.4L10.2,13l-8.3,8.3l0,8.2c0,0.2,0,0.4,0,0.6c0.1,2.1,1,4.1,2.4,5.5l6-6l6.4-6.4
		l5.1,5.1C25.4,26.4,28.1,23.1,29.1,19.1z"/>
	<path class="st2" d="M29.1,19.1c0.4-1.4,0.6-2.9,0.5-4.4c0-1.3-0.3-2.6-0.7-3.8l1.9-1.9c-1.2-3.9-4-7.2-7.7-8.9l-4.7,4.7l8.3,8.3
		l-1.9,1.9L29.1,19.1z"/>
</g>
</svg>
